<?xml version="1.0" encoding="UTF-8" standalone="no"?>
<svg width="64px" height="64px" viewBox="0 0 64 64" version="1.1" xmlns="http://www.w3.org/2000/svg" xmlns:xlink="http://www.w3.org/1999/xlink" xmlns:sketch="http://www.bohemiancoding.com/sketch/ns">
    <!-- Generator: Sketch 3.4.4 (17249) - http://www.bohemiancoding.com/sketch -->
    <title>Group</title>
    <desc>Created with Sketch.</desc>
    <defs></defs>
    <g id="Page-1" stroke="none" stroke-width="1" fill="none" fill-rule="evenodd" sketch:type="MSPage">
        <g id="Group" sketch:type="MSLayerGroup" transform="translate(1.000000, 0.000000)">
            <path fill="#2196F3" d="M8 62.833h47.833c3.76 0 6.834-3.074 6.834-6.834V17.903c0-2.734-1.708-5.296-4.44-6.32L31.916 1.33 5.61 11.582c-2.734 1.026-4.443 3.588-4.443 6.322V56c0 3.76 3.075 6.833 6.833 6.833z"/>
            <path fill="#CFD8DC" d="M50.838 18.68h-37.84c-2.313 0-4.205 1.894-4.205 4.206v25.227c0 2.313 1.892 4.205 4.204 4.205h37.84c2.314 0 4.205-1.892 4.205-4.205V22.886c0-2.313-1.892-4.205-4.204-4.205z"/>
            <path fill="#8E9496" d="M50.838 18.68h-37.84c-2.313 0-4.205 1.894-4.205 4.206v2.102l23.125 16.818 23.125-16.818v-2.102c0-2.313-1.893-4.205-4.205-4.205z"/>
            <path fill="#EBEFF1" d="M50.838 18.68h-37.84c-2.313 0-4.205 1.894-4.205 4.206v2.102L31.918 37.6 55.043 24.99v-2.102c0-2.313-1.893-4.205-4.205-4.205z"/>
        </g>
    </g>
</svg>
